<?xml version="1.0" standalone="no"?><svg xmlns="http://www.w3.org/2000/svg" viewBox="0 0 1440 320"><path fill="#0099ff" fill-opacity="1" d="M0,64L24,96C48,128,96,192,144,218.7C192,245,240,235,288,208C336,181,384,139,432,138.7C480,139,528,181,576,218.7C624,256,672,288,720,272C768,256,816,192,864,176C912,160,960,192,1008,208C1056,224,1104,224,1152,224C1200,224,1248,224,1296,208C1344,192,1392,160,1416,144L1440,128L1440,320L1416,320C1392,320,1344,320,1296,320C1248,320,1200,320,1152,320C1104,320,1056,320,1008,320C960,320,912,320,864,320C816,320,768,320,720,320C672,320,624,320,576,320C528,320,480,320,432,320C384,320,336,320,288,320C240,320,192,320,144,320C96,320,48,320,24,320L0,320Z"></path></svg>